<?xml version="1.0" encoding="UTF-8"?><svg id="uuid-2fbc8543-8eb3-454d-8496-2671da678149" xmlns="http://www.w3.org/2000/svg" width="283.27" height="299.23" viewBox="0 0 283.27 299.23"><defs><style>.uuid-523f6743-a6fe-4019-9136-376f4c54a0a5{fill:none;}.uuid-bd357ec9-7851-4de2-9cf3-1ae5eedd34cc{fill:#017cc2;}.uuid-2daa800d-1372-4207-b9d4-a5cfee3d7261{fill:#76c5f0;}</style></defs><g id="uuid-f2e16f1e-0175-435e-b215-b0094df94d32"><path class="uuid-2daa800d-1372-4207-b9d4-a5cfee3d7261" d="m141.35.01c-1.55,0-3.09.04-4.62.09V.02h4.62Z"/><path class="uuid-2daa800d-1372-4207-b9d4-a5cfee3d7261" d="m147.39,0c0,.05-.02.09-.03.13-1.99-.09-4-.12-6.01-.12h6.04Z"/><path class="uuid-bd357ec9-7851-4de2-9cf3-1ae5eedd34cc" d="m283.27,149.35v.41c0,2.09-.04,4.17-.12,6.24-.07,1.74-.14,3.49-.47,5.19-.08.41-.05.84-.1,1.25-.46,4.04-.7,8.12-1.37,12.13-.88,5.18-2.03,10.33-3.21,15.46-.61,2.63-1.48,5.21-2.33,7.78-.99,3.05-2.06,6.08-3.17,9.08-.63,1.69-1.38,3.34-2.15,4.97-1.48,3.2-2.9,6.43-4.54,9.53-2.41,4.54-4.85,9.05-7.87,13.24-.99,1.39-1.83,2.89-2.78,4.32-.36.54-.62.87-.89,1l-6.74-5.88-12.67-11.05-4.93-4.3c.03-.2.1-.42.2-.66.98-2.19,1.84-4.43,2.68-6.68,1.52-4.13,2.59-8.36,3.32-12.72,1.02-6.03,1.87-12.05,1.79-18.18-.06-4.73.06-9.47-.3-14.18-.4-5.27-1.24-10.51-1.9-15.76-.25-2.03-.37-4.11-.82-6.1-1.36-5.95-3-11.83-4.27-17.81-.91-4.32-2.35-8.46-3.87-12.57-1.56-4.23-2.94-8.54-5.04-12.55-1.62-3.1-2.96-6.34-4.73-9.33-2.41-4.08-4.8-8.16-7.81-11.85-1.77-2.18-3.54-4.32-5.36-6.45-1.66-1.95-3.62-3.49-5.36-5.31-2.9-3.04-6.48-5.22-9.83-7.66-.79-.57-1.62-1.09-2.47-1.56-1.71-.93-3.33-1.94-5-2.86-3.2-1.76-6.64-2.95-10.06-4.21-4.82-1.76-9.77-2.99-14.8-3.91-2.74-.49-5.56-.72-8.36-.84-4.91-.23-9.83-.44-14.75-.36-4.07.06-8.12.62-12.18.85-3.94.22-7.77,1.06-11.6,1.93-2.39.55-4.76,1.17-7.08,1.95-2.4.8-4.94,1.42-7.3,2.42-2.7,1.13-5.31,2.48-7.98,3.68-3.15,1.44-5.98,3.42-8.91,5.26-6.08,3.85-11.34,8.64-16.21,13.86-2.07,2.24-3.91,4.69-5.85,7.04-.29.36-.58.72-.85,1.11-.78,1.08-1.55,2.16-2.3,3.26-.99,1.43-2.04,2.83-2.92,4.34-1.44,2.47-2.8,4.99-4.11,7.53-1.13,2.19-2.31,4.37-3.15,6.67-1.77,4.85-3.49,9.74-4.92,14.7-.86,2.94-1.14,6.05-1.66,9.08-1.29,7.58-1.62,15.24-1.43,22.9.09,3.55.45,7.08.67,10.63.31,4.91,1.64,9.63,2.78,14.38.71,2.94,2.01,5.75,3.11,8.59,1.14,2.92,2.26,5.85,3.79,8.61,3.32,6.06,6.95,11.88,11.25,17.27,2.02,2.53,4.24,4.9,6.47,7.24,2.7,2.84,5.44,5.65,8.31,8.31,2.71,2.47,5.6,4.73,8.43,7.07,1.77,1.44,3.52,2.89,5.35,4.23,2.2,1.59,4.41,3.15,6.72,4.58,2.42,1.5,4.97,2.83,7.47,4.22,5.18,2.89,10.66,5.15,16.22,7.13,3.95,1.41,8.08,2.35,12.19,3.22,3.76.81,7.59,1.52,11.42,1.82,5.42.4,10.86.6,16.33.18,4.32-.33,8.64-.61,12.89-1.45,2.77-.56,5.45-1.54,8.2-2.22,4.1-.99,7.56-3.29,11.11-5.43,3.69-2.24,7.41-4.48,11.08-6.76.41-.26.76-.35,1.1-.27h.01l3.93,3.91,16.44,16.28,5.05,5c-.08.08-.17.17-.28.27-.55.5-1.15.94-1.75,1.39-5.07,3.78-10.35,7.27-15.92,10.27-4.5,2.44-9.22,4.52-13.91,6.58-3.4,1.48-6.87,2.85-10.41,3.93-4.72,1.43-9.52,2.72-14.36,3.73-3.33.7-6.69,1.23-10.05,1.74-.07,0-.14.01-.2.02-4.19.52-8.44.83-12.74.95-1.17.04-2.34.06-3.51.06-2.9.01-5.79-.08-8.65-.25-3.68-.24-7.33-.61-10.93-1.13C53.37,287.92.15,225.5,0,149.89v-.75c0-.4,0-.79,0-1.18,0-.59,0-1.18,0-1.77.02-1.15.07-2.31.14-3.46C3.47,65.04,62.91,2.74,136.73.1c1.53-.05,3.07-.09,4.62-.09,2.01,0,4.02.03,6.01.12,72.19,3.05,130.51,63.18,135.55,138.88.24,3.42.35,6.86.36,10.34Z"/><path class="uuid-2daa800d-1372-4207-b9d4-a5cfee3d7261" d="m220.01,265.29c-46.57,38.54-122.75,31.88-160.3-16.01.07-.07.13-.14.2-.21,39.37,25.11,91.96,26.81,133.43,5.56,3.06-1.45,8.41-4.56,10.23-5.62l16.44,16.28Z"/><path class="uuid-2daa800d-1372-4207-b9d4-a5cfee3d7261" d="m247.53,234.07l-12.67-11.05c13.67-15.1,24.8-32.86,30.42-52.6,2.15,22.23-6.63,44.68-17.75,63.65Z"/><path class="uuid-bd357ec9-7851-4de2-9cf3-1ae5eedd34cc" d="m191.08,184.83c-.82-.72-1.89-1.63-2.98-2.57-2.03-1.73-4.13-3.52-4.85-4.24-2.64-2.64-5.32-5.25-7.94-7.92-6.04-6.16-12.05-12.35-18.09-18.51-.45-.46-1.07-.76-1.61-1.13-.15.59-.39,1.17-.44,1.76-.22,2.66-1.44,4.97-2.63,7.25-1.82,3.51-3.76,6.98-6.59,9.81-2.45,2.48-4.99,4.87-7.54,7.24-1.86,1.72-3.85,3.3-5.82,4.86-1.02.81-2.07,1.57-3.12,2.34-1.28.92-1.34,1.3-.08,1.93,3.4,1.73,6.64,3.67,9.7,5.96,3.06,2.28,6.27,4.36,9.32,6.67,2.18,1.65,4.2,3.51,6.28,5.31,3.31,2.87,6.6,5.78,9.92,8.66.69.6,2.7,2.18,4.88,3.88,1.43,1.11,2.92,2.27,4.16,3.23-1.57,1.03-3.24,1.9-5.01,2.61-13.84,5.52-30.41-.41-44.62-14.05-.02-.02-.04-.04-.06-.06-9.33-8.98-17.63-21.27-23.45-35.83-.02-.05-.04-.09-.06-.14-9.31-23.34-10.02-46.86-3.43-63.29.01-.04.02-.08.04-.12,3-7.44,7.5-13.42,13.38-17.25,0-.01.01-.01.02-.01,1.57-1.03,3.24-1.9,5-2.6,22.98-9.16,53.51,13.27,68.19,50.09,6.42,16.08,8.75,32.25,7.43,46.12Z"/><polyline class="uuid-523f6743-a6fe-4019-9136-376f4c54a0a5" points="199.63 245.1 199.64 245.1 203.57 249.01 220.01 265.29 225.06 270.29"/><polyline class="uuid-523f6743-a6fe-4019-9136-376f4c54a0a5" points="229.93 218.72 234.86 223.02 247.53 234.07 254.27 239.95"/></g></svg>
