<?xml version="1.0" encoding="UTF-8"?><svg id="uuid-77b5f78a-a7b6-416f-9954-9b94e6c634c8" xmlns="http://www.w3.org/2000/svg" width="1746.95" height="437.73" viewBox="0 0 1746.95 437.73"><g id="uuid-1c6531f9-f262-4632-bbc6-ed37ca3bed84"><path d="m414.91,376.75c0,26.51-6.99,40.18-25.07,40.18-17.14,0-24.48-13.24-24.48-40.1s8.6-38.9,24.94-38.9c17.25,0,24.6,12.7,24.6,38.81Zm-39.1-.09c0,21.17,4.41,32.16,14.33,32.16s14.32-10.57,14.32-32.03-4.37-30.68-14.39-30.68-14.27,10.39-14.27,30.55Zm29.65,32.16l15.52,10.76-5.95,6.66-18.16-12.55,8.59-4.86Z" fill="#02468f"/><path d="m504.32,383.85c0-14.06.24-28.54.49-36.74h-.23c-3,13.51-9.94,44.27-16.3,68.64h-9.57c-4.76-21.47-12.03-54.5-14.98-68.8h-.35c.49,8.93.85,25.67.85,38.83v29.97h-9.48v-76.7h15.13c6.22,23.54,12.17,51.29,14.08,61.53h.12c1.57-8.69,9.05-38.9,15.21-61.53h14.92v76.7h-9.88v-31.9Z" fill="#02468f"/><path d="m593.24,382.35v8.22h-25.19v-8.22h25.19Z" fill="#02468f"/><path d="m639.77,339.05h18.94c19.45,0,27.93,12.41,27.93,36.42,0,26.01-7.77,40.28-29.22,40.28h-17.65v-76.7Zm10.2,68.74h7.13c14.41,0,19.04-10.55,19.04-32.07,0-19.85-5.23-28.6-18.92-28.6h-7.25v60.68Z" fill="#02468f"/><path d="m732.63,358.22h9.97v57.53h-9.97v-57.53Zm.06-22.89h9.97v12.13h-9.97v-12.13Z" fill="#02468f"/><path d="m788.24,388.91c0,10.5,1.86,20.01,11.31,20.01s10.39-7.98,10.7-9.77h9.7c-.18,1.55-1.85,17.67-20.51,17.67s-21.18-15.55-21.18-29.92c0-18.21,6.85-29.64,21.62-29.64,16.6,0,20.56,12.46,20.56,26.96,0,1.27-.06,3.35-.18,4.68h-32.02Zm22.27-7.12c0-9.06-1.96-16.67-10.7-16.67-10.71,0-11.26,12.69-11.39,16.67h22.09Z" fill="#02468f"/><path d="m858.21,376.04c0-11.78-.07-15.08-.12-17.81h9.62c.18,1.41.35,3.71.35,7.24,2.02-4.23,6.19-8.25,14.47-8.25,9.18,0,15.9,4.97,15.9,17.54v41h-10.04v-39.09c0-6.77-2.23-11.28-9.02-11.28-7.78,0-11.14,4.65-11.14,15.86v34.51h-10.04v-39.72Z" fill="#02468f"/><path d="m944.86,399.02c.33,5.72,3.55,10.31,10.39,10.31,6.37,0,9.43-3.51,9.43-8.5,0-5.58-3.03-8.22-10.99-11.07-13.13-4.64-16.84-9-16.84-17.09s5.14-15.45,18.18-15.45c14.29,0,18.24,9.05,18.3,16.67h-9.7c-.13-2.6-.72-9.24-8.9-9.24-5.46,0-8,3.14-8,7.44s2.18,6.56,10.53,9.54c12.16,4.32,17.41,8.51,17.41,18.26,0,10.64-7.17,16.88-19.89,16.88s-19.52-7.36-19.78-17.75h9.87Z" fill="#02468f"/><path d="m1005.48,358.22h8.61v-15.14h9.9v15.14h10.54v7.85h-10.54v36.53c0,3.83.87,6.19,5.5,6.19,1.46,0,3.05-.06,4.2-.29v7.04c-2.2.82-5.47,1-7.58,1-7.78,0-12.02-2.88-12.02-12.18v-38.29h-8.61v-7.85Z" fill="#02468f"/><path d="m1069.61,415.75v-80.42h9.97v80.42h-9.97Z" fill="#02468f"/><path d="m1127.65,388.91c0,10.5,1.86,20.01,11.31,20.01s10.39-7.98,10.7-9.77h9.7c-.18,1.55-1.85,17.67-20.51,17.67s-21.18-15.55-21.18-29.92c0-18.21,6.85-29.64,21.62-29.64,16.6,0,20.56,12.46,20.56,26.96,0,1.27-.06,3.35-.18,4.68h-32.02Zm22.27-7.12c0-9.06-1.96-16.67-10.7-16.67-10.71,0-11.26,12.69-11.39,16.67h22.09Z" fill="#02468f"/><path d="m1200.05,358.22h9.97v57.53h-9.97v-57.53Zm.05-22.89h9.97v12.13h-9.97v-12.13Z" fill="#02468f"/><path d="m1254,399.02c.33,5.72,3.55,10.31,10.39,10.31,6.37,0,9.43-3.51,9.43-8.5,0-5.58-3.03-8.22-10.99-11.07-13.13-4.64-16.84-9-16.84-17.09s5.14-15.45,18.18-15.45c14.29,0,18.24,9.05,18.3,16.67h-9.7c-.13-2.6-.72-9.24-8.9-9.24-5.46,0-8,3.14-8,7.44s2.18,6.56,10.53,9.54c12.16,4.32,17.41,8.51,17.41,18.26,0,10.64-7.17,16.88-19.89,16.88s-19.52-7.36-19.78-17.75h9.87Z" fill="#02468f"/><path d="m1314.62,358.22h8.61v-15.14h9.9v15.14h10.54v7.85h-10.54v36.53c0,3.83.87,6.19,5.5,6.19,1.46,0,3.05-.06,4.2-.29v7.04c-2.2.82-5.47,1-7.58,1-7.78,0-12.02-2.88-12.02-12.18v-38.29h-8.61v-7.85Z" fill="#02468f"/><path d="m1420.19,399.78c0,7.46,0,13.17.12,15.97h-9.5c-.3-1.68-.42-4.03-.48-7.4-2.32,5.62-7.36,8.41-14.52,8.41s-15.47-2.99-15.47-17.2v-41.35h10.03v39.18c0,7.03,2.02,11.26,8.74,11.26s11.04-3.66,11.04-15.45v-34.99h10.03v41.56Z" fill="#02468f"/><path d="m1460.44,376.04c0-11.78-.07-15.08-.12-17.81h9.62c.18,1.41.35,3.71.35,7.24,2.02-4.23,6.19-8.25,14.47-8.25,9.18,0,15.9,4.97,15.9,17.54v41h-10.03v-39.09c0-6.77-2.23-11.28-9.02-11.28-7.78,0-11.14,4.65-11.14,15.86v34.51h-10.03v-39.72Z" fill="#02468f"/><path d="m1583.73,411.89c0,15.35-4.14,25.84-22.08,25.84-16.3,0-19.79-9.65-20.16-16.01h10.05c.24,2.89,2,8.21,10.46,8.21,9.88,0,11.88-6.74,11.88-18.04v-4.75c-2.23,5.63-7.37,8.4-14.18,8.4-12.62,0-18.68-10.02-18.68-27.88,0-20.51,8.12-30.4,20.01-30.4,8.33,0,11.74,3.74,12.84,7.23-.01-2.38.3-5.05.48-6.28h9.56c-.12,3.11-.18,8.93-.18,16.75v36.92Zm-32.45-24.43c0,13.55,3.91,20.02,11.24,20.02,9.13,0,11.53-8.33,11.53-21.51s-1.7-20.59-10.83-20.59c-7.78,0-11.94,7.52-11.94,22.08Z" fill="#02468f"/><path d="m1634.33,388.91c0,10.5,1.86,20.01,11.31,20.01s10.39-7.98,10.7-9.77h9.7c-.18,1.55-1.85,17.67-20.51,17.67s-21.17-15.55-21.17-29.92c0-18.21,6.85-29.64,21.62-29.64,16.6,0,20.56,12.46,20.56,26.96,0,1.27-.05,3.35-.18,4.68h-32.02Zm22.27-7.12c0-9.06-1.96-16.67-10.7-16.67-10.71,0-11.26,12.69-11.39,16.67h22.09Z" fill="#02468f"/><path d="m1706.73,376.04c0-11.78-.07-15.08-.12-17.81h9.62c.18,1.41.35,3.71.35,7.24,2.02-4.23,6.19-8.25,14.47-8.25,9.18,0,15.9,4.97,15.9,17.54v41h-10.03v-39.09c0-6.77-2.23-11.28-9.02-11.28-7.78,0-11.14,4.65-11.14,15.86v34.51h-10.03v-39.72Z" fill="#02468f"/><path d="m302.37,281.6v59.82c-117.82,0-211.32-87.59-211.32-198.11h63.77c0,77.48,64.95,138.29,147.55,138.29Z" fill="#02468f"/><path d="m302.37,370.36v56.49C134.27,426.85,0,301.01,0,143.31h60.21c0,126.5,107.31,227.04,242.16,227.04Z" fill="#02468f"/><path d="m641.2,221.85c28.56-4.88,45.21-21.89,45.21-47.1,0-14.41-5.53-26.46-15.99-34.86-11.04-8.87-27.05-13.36-47.6-13.36h-89.33v155.81h19.75v-59.15h62.65l58.69,59.15h26.92l-60.3-60.49Zm-87.96-16.16v-61.66h69.58c29.09,0,43.83,10.33,43.83,30.72s-14.74,30.94-43.83,30.94h-69.58Z" fill="#4c4c4c"/><path d="m1682.87,221.85c28.56-4.88,45.2-21.89,45.2-47.1,0-14.41-5.52-26.46-15.98-34.86-11.04-8.87-27.06-13.36-47.6-13.36h-89.33v155.81h19.75v-59.15h62.65l58.69,59.15h26.92l-60.3-60.49Zm-87.96-16.16v-61.66h69.58c29.08,0,43.83,10.33,43.83,30.72s-14.75,30.94-43.83,30.94h-69.58Z" fill="#4c4c4c"/><path d="m823.76,123.67c-53.31,0-92,33.97-92,80.77s38.69,80.76,92,80.76,92-33.97,92-80.76-38.69-80.77-92-80.77Zm52.99,125.83c-13.28,11.74-32.1,18.2-52.99,18.2s-39.71-6.46-52.99-18.2c-12.95-11.45-20.09-27.46-20.09-45.06s7.14-33.62,20.09-45.07c13.28-11.74,32.1-18.2,52.99-18.2s39.71,6.46,52.99,18.2c12.96,11.45,20.09,27.46,20.09,45.07s-7.13,33.61-20.09,45.06Z" fill="#4c4c4c"/><path d="m1046.85,195.21l-1.87-.18c-35.85-3.52-59.35-7.11-59.35-24.24,0-21.84,29.06-29.62,56.25-29.62,33.92,0,55.47,10.95,56.25,28.57l.25,5.73h21.11l-.25-6.24c-1.13-27.67-31.5-45.56-77.37-45.56-22.13,0-41.08,4.19-54.82,12.13-14.54,8.4-22.55,20.83-22.55,34.99,0,34.11,41.06,38.18,77.29,41.77l1.87.18c35.85,3.52,59.35,7.1,59.35,24.24,0,18.66-24.13,30.72-61.46,30.72s-60.67-11.87-61.47-30.97l-.24-5.75h-21.11l.23,6.22c1.1,29.61,32.74,48,82.58,48,23.8,0,44.04-4.19,58.53-12.12,15.74-8.61,24.06-21.1,24.06-36.1,0-34.11-41.06-38.18-77.29-41.77Z" fill="#4c4c4c"/><path d="m1248.34,195.21l-1.87-.18c-35.85-3.52-59.35-7.11-59.35-24.24,0-21.84,29.06-29.62,56.25-29.62,33.92,0,55.47,10.95,56.25,28.57l.25,5.73h21.11l-.25-6.24c-1.13-27.67-31.5-45.56-77.37-45.56-22.13,0-41.08,4.19-54.82,12.13-14.54,8.4-22.55,20.83-22.55,34.99,0,34.11,41.06,38.18,77.29,41.77l1.87.18c35.85,3.52,59.35,7.1,59.35,24.24,0,18.66-24.13,30.72-61.46,30.72s-60.67-11.87-61.47-30.97l-.24-5.75h-21.11l.23,6.22c1.1,29.61,32.74,48,82.58,48,23.8,0,44.04-4.19,58.53-12.12,15.74-8.61,24.06-21.1,24.06-36.1,0-34.11-41.06-38.18-77.28-41.77Z" fill="#4c4c4c"/><polygon points="1370.75 282.34 1522.86 282.34 1522.86 264.84 1390.96 264.84 1390.96 211.97 1505.86 211.97 1505.86 194.48 1390.96 194.48 1390.96 144.03 1522.86 144.03 1522.86 126.53 1370.75 126.53 1370.75 282.34" fill="#4c4c4c"/><path d="m308.59,19.94c-37.17,0-70.73,12.18-94.52,34.29-23.49,21.84-36.42,52.36-36.42,85.95,0,1.05.01,2.09.04,3.13h-21.91c-.02-1.04-.03-2.08-.03-3.13,0-39.26,15.28-74.94,43.03-100.5C226.58,14.09,265.58,0,308.59,0c66.85,0,121.81,33.89,143.44,88.46l3.26,8.21h-23.44l-1.54-3.67c-18.98-45.07-65.62-73.06-121.72-73.06Z" fill="#4c4c4c"/><path d="m461,131.53l-.02,9.38c-3.08,36.94-19.67,71.56-46.72,97.47-28.26,27.07-65.79,41.98-105.67,41.98-2.08,0-4.16-.03-6.22-.1v-19.96c2.06.08,4.14.12,6.22.12,33,0,64.43-12.08,88.48-34.02,21.7-19.77,36.33-46.2,41.59-74.93h-152.49v-19.94h174.83Z" fill="#4c4c4c"/></g></svg>
