<?xml version="1.0" encoding="UTF-8"?><svg id="uuid-46a6991a-a401-4fda-8705-ec3626b08990" xmlns="http://www.w3.org/2000/svg" width="1233" height="300" viewBox="0 0 1233 300"><g id="uuid-6a9beb2f-083a-47d7-a271-1c790e7f97af"><path d="m512.44,55.72h-39.9c-2.02,0-3.84,1.21-4.62,3.07l-51.68,122.61-51.33-122.6c-.78-1.86-2.6-3.08-4.62-3.08h-40.4c-2.77,0-5.01,2.24-5.01,5.01v185c0,2.77,2.24,5.01,5.01,5.01h30.81c2.77,0,5.01-2.24,5.01-5.01v-90.92s0-.07,0-.11l-.5-23.34,40.69,103.58c.75,1.92,2.6,3.18,4.67,3.18h29.29c2.04,0,3.88-1.24,4.65-3.14l41.79-103.54-.44,22.87v91.43c0,2.77,2.24,5.01,5.01,5.01h31.57c2.77,0,5.01-2.24,5.01-5.01V60.73c0-2.77-2.24-5.01-5.01-5.01Z" fill="#017cc2"/><path d="m548.99,158.76h67.68c2.77,0,5.01,2.25,5.01,5.01v25.76c0,2.77-2.25,5.01-5.01,5.01h-67.68c-2.77,0-5.01-2.25-5.01-5.01v-25.76c0-2.77,2.25-5.01,5.01-5.01Z" fill="#017cc2"/><path d="m801.69,140.2h-70.71c-2.75,0-4.99,2.22-5.01,4.97l-.25,26.9c-.01,1.34.51,2.62,1.45,3.57.94.95,2.22,1.49,3.56,1.49h33.75v34.4c-8.17,2.7-17.25,4.07-27.06,4.07-16.89,0-29.27-5.28-37.86-16.15-8.75-11.07-13.19-26.56-13.19-46.02s4.97-35.06,14.78-46.19c9.78-11.09,22.97-16.49,40.31-16.49,14.49,0,29.2,3.96,43.71,11.78,1.23.66,2.69.78,4.01.32,1.32-.46,2.4-1.45,2.96-2.74l11.11-25.51c1-2.31.14-5-2.01-6.3-16.8-10.11-37.12-15.24-60.41-15.24-20.38,0-38.36,4.25-53.44,12.63-15.2,8.45-26.89,20.38-34.72,35.47-7.75,14.92-11.67,32.37-11.67,51.87,0,30.72,8.46,55.37,25.15,73.25,16.78,17.98,40.25,27.1,69.76,27.1,12.26,0,23.82-1.19,34.36-3.53,10.46-2.33,21.68-5.94,33.33-10.74,1.88-.77,3.1-2.6,3.1-4.63v-89.28c0-2.77-2.24-5.01-5.01-5.01Z" fill="#017cc2"/><path d="m959.7,101.93h-33.08c-2.77,0-5.01,2.24-5.01,5.01v87.01c0,9.09-1.7,15.52-5.04,19.13-3.24,3.5-8.83,5.28-16.59,5.28s-13.66-1.8-16.99-5.36c-3.42-3.65-5.15-10.06-5.15-19.05v-87.01c0-2.77-2.24-5.01-5.01-5.01h-33.21c-2.77,0-5.01,2.24-5.01,5.01v88.27c0,18.92,6.16,33.57,18.31,43.53,11.85,9.72,27.55,14.65,46.67,14.65s34.84-4.95,46.74-14.71h0c12.19-10.01,18.37-24.63,18.37-43.46v-88.27c0-2.77-2.24-5.01-5.01-5.01Z" fill="#017cc2"/><path d="m1078.92,101.86c-2.55-.38-5.68-.56-9.57-.56-15,0-27.33,5.07-36.79,15.08l-2.11-10.43c-.47-2.34-2.53-4.02-4.91-4.02h-27.78c-2.77,0-5.01,2.24-5.01,5.01v138.78c0,2.77,2.24,5.01,5.01,5.01h33.08c2.77,0,5.01-2.24,5.01-5.01v-75.26c0-10.17,2.59-18.12,7.69-23.61,5-5.39,12.96-8.12,23.66-8.12,3.35,0,6.63.24,9.74.7,1.43.22,2.88-.2,3.98-1.13,1.1-.93,1.75-2.29,1.78-3.74l.51-27.65c.05-2.52-1.79-4.68-4.28-5.05Z" fill="#017cc2"/><path d="m1227.99,101.93h-33.08c-2.77,0-5.01,2.24-5.01,5.01v87.01c0,9.09-1.7,15.52-5.04,19.13-3.24,3.5-8.83,5.28-16.59,5.28s-13.66-1.8-16.99-5.36c-3.42-3.65-5.15-10.06-5.15-19.05v-87.01c0-2.77-2.24-5.01-5.01-5.01h-33.21c-2.77,0-5.01,2.24-5.01,5.01v88.27c0,18.92,6.16,33.57,18.31,43.53,11.85,9.72,27.55,14.65,46.67,14.65s34.84-4.95,46.74-14.71h0c12.19-10.01,18.37-24.63,18.37-43.46v-88.27c0-2.77-2.24-5.01-5.01-5.01Z" fill="#017cc2"/><path d="m141.7.01c-1.55,0-3.1.04-4.63.09V.02h4.63Z" fill="#76c5f0"/><path d="m147.75,0c0,.05-.02.09-.03.13-1.99-.09-4.01-.12-6.02-.12h6.05Z" fill="#76c5f0"/><path d="m283.96,149.73v.41c0,2.1-.04,4.18-.12,6.26-.07,1.74-.14,3.5-.47,5.2-.08.41-.05.84-.1,1.25-.46,4.05-.7,8.14-1.37,12.16-.88,5.19-2.03,10.36-3.22,15.5-.61,2.64-1.48,5.22-2.34,7.8-.99,3.06-2.07,6.1-3.18,9.1-.63,1.69-1.38,3.35-2.16,4.98-1.48,3.21-2.91,6.45-4.55,9.55-2.42,4.55-4.86,9.07-7.89,13.27-.99,1.39-1.83,2.9-2.79,4.33-.36.54-.62.87-.89,1l-6.76-5.9-12.7-11.08-4.94-4.31c.03-.2.1-.42.2-.66.98-2.2,1.84-4.44,2.69-6.7,1.52-4.14,2.6-8.38,3.33-12.75,1.02-6.05,1.87-12.08,1.79-18.23-.06-4.74.06-9.49-.3-14.22-.4-5.28-1.24-10.54-1.9-15.8-.25-2.04-.37-4.12-.82-6.12-1.36-5.97-3.01-11.86-4.28-17.86-.91-4.33-2.36-8.48-3.88-12.6-1.56-4.24-2.95-8.56-5.05-12.58-1.62-3.11-2.97-6.36-4.74-9.35-2.42-4.09-4.81-8.18-7.83-11.88-1.77-2.19-3.55-4.33-5.37-6.47-1.66-1.95-3.63-3.5-5.37-5.32-2.91-3.05-6.5-5.23-9.85-7.68-.79-.57-1.62-1.09-2.48-1.56-1.71-.93-3.34-1.94-5.01-2.87-3.21-1.76-6.66-2.96-10.08-4.22-4.83-1.76-9.79-3-14.84-3.92-2.75-.49-5.57-.72-8.38-.84-4.92-.23-9.85-.44-14.79-.36-4.08.06-8.14.62-12.21.85-3.95.22-7.79,1.06-11.63,1.94-2.4.55-4.77,1.17-7.1,1.96-2.41.8-4.95,1.42-7.32,2.43-2.71,1.13-5.32,2.49-8,3.69-3.16,1.44-5.99,3.43-8.93,5.27-6.09,3.86-11.37,8.66-16.25,13.9-2.08,2.25-3.92,4.7-5.86,7.06-.29.36-.58.72-.85,1.11-.78,1.08-1.55,2.17-2.31,3.27-.99,1.43-2.04,2.84-2.93,4.35-1.44,2.48-2.81,5-4.12,7.55-1.13,2.2-2.32,4.38-3.16,6.69-1.77,4.86-3.5,9.77-4.93,14.74-.86,2.95-1.14,6.07-1.66,9.1-1.29,7.6-1.62,15.28-1.43,22.96.09,3.56.45,7.1.67,10.66.31,4.92,1.64,9.65,2.79,14.42.71,2.95,2.01,5.76,3.12,8.61,1.14,2.93,2.27,5.87,3.8,8.63,3.33,6.08,6.97,11.91,11.28,17.31,2.02,2.54,4.25,4.91,6.49,7.26,2.71,2.85,5.45,5.66,8.33,8.33,2.72,2.48,5.61,4.74,8.45,7.09,1.77,1.44,3.53,2.9,5.36,4.24,2.21,1.59,4.42,3.16,6.74,4.59,2.43,1.5,4.98,2.84,7.49,4.23,5.19,2.9,10.69,5.16,16.26,7.15,3.96,1.41,8.1,2.36,12.22,3.23,3.77.81,7.61,1.52,11.45,1.82,5.43.4,10.89.6,16.37.18,4.33-.33,8.66-.61,12.92-1.45,2.78-.56,5.46-1.54,8.22-2.23,4.11-.99,7.58-3.3,11.14-5.44,3.7-2.25,7.43-4.49,11.11-6.78.41-.26.76-.35,1.1-.27h.01l3.94,3.92,16.48,16.32,5.06,5.01c-.08.08-.17.17-.28.27-.55.5-1.15.94-1.75,1.39-5.08,3.79-10.38,7.29-15.96,10.3-4.51,2.45-9.24,4.53-13.94,6.6-3.41,1.48-6.89,2.86-10.44,3.94-4.73,1.43-9.54,2.73-14.39,3.74-3.34.7-6.71,1.23-10.07,1.74-.07,0-.14.01-.2.02-4.2.52-8.46.83-12.77.95-1.17.04-2.35.06-3.52.06-2.91.01-5.8-.08-8.67-.25-3.69-.24-7.35-.61-10.96-1.13C53.5,288.66.15,226.08,0,150.28v-.75c0-.4,0-.79,0-1.18,0-.59,0-1.18,0-1.77.02-1.15.07-2.32.14-3.47C3.48,65.21,63.06,2.75,137.06.1c1.53-.05,3.08-.09,4.63-.09,2.01,0,4.03.03,6.02.12,72.36,3.06,130.83,63.34,135.88,139.24.24,3.43.35,6.88.36,10.37Z" fill="#017cc2"/><path d="m220.54,265.97c-46.68,38.64-123.05,31.96-160.69-16.05.07-.07.13-.14.2-.21,39.47,25.17,92.18,26.88,133.75,5.57,3.07-1.45,8.43-4.57,10.25-5.63l16.48,16.32Z" fill="#76c5f0"/><path d="m248.13,234.67l-12.7-11.08c13.7-15.14,24.86-32.94,30.49-52.74,2.16,22.29-6.65,44.79-17.79,63.81Z" fill="#76c5f0"/><path d="m191.54,185.31c-.82-.72-1.89-1.63-2.99-2.58-2.03-1.73-4.14-3.53-4.86-4.25-2.65-2.65-5.33-5.26-7.96-7.94-6.05-6.18-12.08-12.38-18.13-18.56-.45-.46-1.07-.76-1.61-1.13-.15.59-.39,1.17-.44,1.76-.22,2.67-1.44,4.98-2.64,7.27-1.82,3.52-3.77,7-6.61,9.84-2.46,2.49-5,4.88-7.56,7.26-1.86,1.72-3.86,3.31-5.83,4.87-1.02.81-2.07,1.57-3.13,2.35-1.28.92-1.34,1.3-.08,1.93,3.41,1.73,6.66,3.68,9.72,5.98,3.07,2.29,6.29,4.37,9.34,6.69,2.19,1.65,4.21,3.52,6.3,5.32,3.32,2.88,6.62,5.79,9.94,8.68.69.6,2.71,2.19,4.89,3.89,1.43,1.11,2.93,2.28,4.17,3.24-1.57,1.03-3.25,1.9-5.02,2.62-13.87,5.53-30.48-.41-44.73-14.09-.02-.02-.04-.04-.06-.06-9.35-9-17.67-21.32-23.51-35.92-.02-.05-.04-.09-.06-.14-9.33-23.4-10.04-46.98-3.44-63.45.01-.04.02-.08.04-.12,3.01-7.46,7.52-13.45,13.41-17.29,0-.01.01-.01.02-.01,1.57-1.03,3.25-1.9,5.01-2.61,23.04-9.18,53.64,13.3,68.35,50.22,6.44,16.12,8.77,32.33,7.45,46.24Z" fill="#017cc2"/><polyline points="200.11 245.73 200.12 245.73 204.06 249.65 220.54 265.97 225.6 270.98" fill="none"/><polyline points="230.49 219.28 235.43 223.59 248.13 234.67 254.89 240.57" fill="none"/></g></svg>
